<svg xmlns="http://www.w3.org/2000/svg" style="display:none" >
  <symbol id="tree" viewBox="0 0 17 17" >
    <path
      fill="currentColor"
      d="M14.755 14.006l-2.536-3.381H13.283a.531.531 0 0 0 .41-.869l-2.536-3.381h1.063a.532.532 0 0 0 .415-.863L8.385.199a.53.53 0 0 0-.83 0l-4.25 5.313a.531.531 0 0 0 .415.863h1.063l-2.55 3.4a.53.53 0 0 0 .425.85h1.063l-2.55 3.4a.53.53 0 0 0 .425.85h4.781v1.594c0 .293.238.531.531.531h2.125a.531.531 0 0 0 .531-.531v-1.594h4.782a.531.531 0 0 0 .41-.869z"
    />
  </symbol>

  <symbol id="search" viewBox="0 0 17 17">
    <path
      d="M11 6C13.7614 6 16 8.23858 16 11M16.6588 16.6549L21 21M19 11C19 15.4183 15.4183 19 11 19C6.58172 19 3 15.4183 3 11C3 6.58172 6.58172 3 11 3C15.4183 3 19 6.58172 19 11Z"
      stroke="#000000"
      fill="currentColor"
      stroke-width="2"
      stroke-linecap="round"
      stroke-linejoin="round"
    />
  </symbol>

  <symbol id="home" viewBox="0 0 17 17" fill="currentColor">
  <g stroke-width="0"></g>
  <g stroke-linecap="round" stroke-linejoin="round"></g>
  <g>
    <path d="M2 12.2039C2 9.91549 2 8.77128 2.5192 7.82274C3.0384 6.87421 3.98695 6.28551 5.88403 5.10813L7.88403 3.86687C9.88939 2.62229 10.8921 2 12 2C13.1079 2 14.1106 2.62229 16.116 3.86687L18.116 5.10812C20.0131 6.28551 20.9616 6.87421 21.4808 7.82274C22 8.77128 22 9.91549 22 12.2039V13.725C22 17.6258 22 19.5763 20.8284 20.7881C19.6569 22 17.7712 22 14 22H10C6.22876 22 4.34315 22 3.17157 20.7881C2 19.5763 2 17.6258 2 13.725V12.2039Z" stroke="#1C274C" stroke-width="1.5">
    </path>
    <path d="M6 11.6825C9.31371 8.10583 14.6863 8.10583 18 11.6825M8.00002 13.841C10.2092 11.4566 13.7909 11.4566 16 13.841M10 16C11.1046 14.8078 12.8955 14.8078 14 16" stroke="#1C274C" stroke-width="1.5" stroke-linecap="round"></path>
  </g>
  </symbol>
</svg>


